<svg width="20" height="19" viewBox="0 0 20 19" fill="none" xmlns="http://www.w3.org/2000/svg">
<path d="M19.2624 11.4004C18.8754 13.0444 18.0685 14.56 16.9205 15.7988C15.7725 17.0376 14.3227 17.9574 12.7127 18.4681C11.1028 18.9789 9.38795 19.0632 7.73572 18.7127C6.08349 18.3623 4.55047 17.5891 3.28651 16.4688C2.02256 15.3485 1.07092 13.9194 0.524649 12.3212C-0.0216274 10.723 -0.143853 9.0104 0.169918 7.35082C0.48369 5.69124 1.22272 4.14147 2.31477 2.85302C3.40681 1.56457 4.8145 0.581529 6.40022 0C5.99648 1.71543 6.0647 3.50816 6.59762 5.18795C7.13055 6.86774 8.1083 8.37191 9.42712 9.54084C10.7459 10.7098 12.3566 11.4999 14.0882 11.8273C15.8199 12.1546 17.6078 12.0071 19.2624 11.4004V11.4004Z" fill="white"/>
</svg>
