<svg width="35" height="46" viewBox="0 0 35 46" fill="none" xmlns="http://www.w3.org/2000/svg">
<path d="M32.1656 36.5603H17.1536V37.6854H28.5379C27.4357 42.2667 22.78 44.3588 17.2012 44.3588C10.7727 44.3588 5.58736 41.6056 5.58736 35.499C5.58736 31.4893 7.8223 28.9256 11.1776 27.6376C11.8808 27.3701 12.6047 27.1604 13.342 27.0108C14.6125 26.7565 15.9056 26.6321 17.2012 26.6393C22.3923 26.6393 26.785 28.4493 28.2578 32.3971H33.7109C32.2552 29.2724 28.5246 27.3385 23.6984 26.4735V26.4678C23.6235 26.4335 23.5482 26.3982 23.4726 26.362C20.1383 24.7492 17.7871 21.2634 17.628 17.1803C21.8016 17.3432 25.3522 19.7973 26.9146 23.2516H27.9758C28.8971 18.8351 29.5087 18.2235 33.9243 17.3041V16.1733C29.5087 15.2531 28.8971 14.6414 27.9758 10.2259H26.9279C25.3722 13.6955 21.8131 16.1638 17.6261 16.3229C17.7786 12.1359 20.2364 8.573 23.6984 7.00682V5.94842C19.2857 5.02719 18.6722 4.41654 17.7547 0H16.623C15.7037 4.41654 15.0921 5.02719 10.6765 5.94842V6.99634C14.1546 8.55585 16.6258 12.1283 16.7783 16.3277C12.578 16.1752 9.0055 13.704 7.44219 10.2306H6.39426C5.47494 14.6462 4.86333 15.2578 0.447751 16.1781V17.3089C4.86333 18.2282 5.47494 18.8398 6.39426 23.2564H7.45934C9.02551 19.7934 12.5894 17.3356 16.7764 17.1841C16.7106 19.1048 16.1356 20.9736 15.1101 22.599C14.0847 24.2244 12.6456 25.5481 10.9404 26.4344C4.53562 27.5186 0 30.448 0 35.499C0 42.0809 7.70131 45.0609 17.2041 45.0609C26.1505 45.0609 33.5184 42.4039 34.3072 36.5622L32.1656 36.5603ZM26.0076 15.3283C26.6497 14.6853 27.0718 13.8622 27.4185 12.7495C27.7653 13.8622 28.1854 14.6853 28.8285 15.3283C29.4715 15.9714 30.2946 16.3915 31.4073 16.7383C30.2946 17.085 29.4715 17.5061 28.8285 18.1491C28.1854 18.7922 27.7653 19.6153 27.4185 20.728C27.0718 19.6153 26.6497 18.7922 26.0076 18.1491C25.3656 17.5061 24.5405 17.085 23.4288 16.7383C24.5367 16.3915 25.3608 15.9714 26.0076 15.3283ZM8.37294 18.1491C7.72989 18.7922 7.30977 19.6153 6.963 20.728C6.61623 19.6153 6.1923 18.7922 5.55211 18.1491C4.91192 17.5061 4.08596 17.085 2.97325 16.7383C4.08596 16.3915 4.90906 15.9761 5.55211 15.3283C6.19515 14.6805 6.61623 13.8622 6.963 12.7495C7.30977 13.8622 7.72513 14.6853 8.37294 15.3283C9.02075 15.9714 9.84004 16.3915 10.9518 16.7383C9.84004 17.085 9.01694 17.5061 8.37294 18.1491ZM15.778 7.92328C15.1349 7.28119 14.3118 6.85916 13.2001 6.51239C14.3118 6.16657 15.1349 5.75026 15.778 5.10245C16.421 4.45464 16.8421 3.63631 17.1889 2.5236C17.5356 3.63631 17.951 4.45941 18.5998 5.10245C19.2485 5.7455 20.0659 6.16657 21.1786 6.51239C20.0659 6.85916 19.2438 7.28119 18.5998 7.92328C17.9558 8.56538 17.5356 9.39038 17.1889 10.5021C16.8421 9.39038 16.422 8.56728 15.778 7.92328Z" fill="white"/>
</svg>
