<svg xmlns="http://www.w3.org/2000/svg" width="380" height="118" fill="none"><path fill="#fff" d="M153.268 99.467h6.332c.071 7.671 5.493 12.244 14.78 12.244 8.091 0 12.814-3.535 12.814-9.076 0-6.826-6.893-7.953-14.351-9.146-8.939-1.41-18.793-3.734-18.793-14.498 0-8.938 6.827-14.78 18.793-14.78 12.173 0 19.561 6.337 19.632 16.822h-6.186c0-7.039-4.923-11.192-13.437-11.192-8.025 0-12.373 3.45-12.373 8.797 0 6.544 6.628 7.741 13.932 8.868 9.005 1.476 19.212 3.447 19.212 14.705 0 9.279-7.109 15.13-19.282 15.13-13.062 0-21.073-6.823-21.073-17.874ZM129.823 0h6.858v47.102h26.755v6.027h-33.613V0ZM373.142.004v43.43L329.712.005H322.854V53.134h6.858V9.699l43.43 43.435H380V.004h-6.858ZM373.142 64.216v43.43l-43.43-43.43H322.854v53.129h6.858V73.91l43.43 43.435H380V64.216h-6.858ZM304.628 0h6.857v53.134h-6.857V0ZM216.684 64.216h6.858v53.125h-6.858V64.216ZM53.956 6.464 51.666 0 17.693 12.027 13.65 13.46h-.004l-6.787 2.404V.009H0v53.125h6.858V23.14l9.045-3.203 33.201 33.201 4.852-4.847-30.89-30.89 30.89-10.937ZM91.907 0a26.564 26.564 0 1 0 0 53.129 26.564 26.564 0 0 0 0-53.129Zm0 47.102a20.538 20.538 0 1 1 20.538-20.537 20.53 20.53 0 0 1-12.677 18.98 20.533 20.533 0 0 1-7.861 1.562v-.005ZM299.582 87.771h-26.384v6.027h20.326a20.528 20.528 0 0 1-20.203 17.542 20.527 20.527 0 0 1-17.559-31.322 20.53 20.53 0 0 1 25.506-8.082 20.522 20.522 0 0 1 10.36 9.808h6.535a26.571 26.571 0 0 0-46.755-6.187 26.573 26.573 0 1 0 48.174 18.241c.115-1.002.173-2.01.172-3.018a27.254 27.254 0 0 0-.172-3.009ZM227.762 29.605c.23-2.003.23-4.025 0-6.027A26.555 26.555 0 0 0 201.411.054a26.55 26.55 0 0 0-26.399 23.47 26.549 26.549 0 0 0 20.275 28.924 26.552 26.552 0 0 0 31.065-16.812h-6.539a20.537 20.537 0 0 1-38.756-6.031h46.705Zm-46.705-6.05a20.537 20.537 0 0 1 40.629 0h-40.629ZM130.004 93.79c.23-2.003.23-4.025 0-6.028a26.55 26.55 0 1 0-1.422 12.059h-6.54a20.535 20.535 0 0 1-21.598 11.251 20.542 20.542 0 0 1-17.158-17.283H130.004ZM83.3 87.761a20.538 20.538 0 0 1 40.651 0H83.3ZM266.694 0a26.508 26.508 0 0 0-20.533 9.72V0h-6.858v53.134h6.858v-9.721a26.57 26.57 0 0 0 23.787 9.517 26.569 26.569 0 0 0 20.765-15.007 26.555 26.555 0 0 0-1.572-25.572A26.555 26.555 0 0 0 266.694 0Zm0 47.102a20.539 20.539 0 1 1 18.977-12.676 20.542 20.542 0 0 1-11.116 11.118 20.53 20.53 0 0 1-7.861 1.563v-.005ZM27.395 64.211a26.513 26.513 0 0 0-20.533 9.721v-9.72H0v53.129h6.858v-9.721a26.566 26.566 0 0 0 42.985-31.056A26.565 26.565 0 0 0 27.395 64.21Zm0 47.103A20.536 20.536 0 0 1 8.421 98.635a20.538 20.538 0 1 1 18.974 12.679Z"/></svg>