<svg width="73" height="73" viewBox="0 0 73 73" fill="none" xmlns="http://www.w3.org/2000/svg">
<path d="M60.0295 22.2991H57.7444C54.3502 29.8641 46.5893 35.2401 37.4604 35.6006C37.7932 26.4698 43.1526 18.7015 50.7009 15.2851V12.9705C41.0728 10.9628 39.7473 9.62993 37.7322 0H35.2678C33.262 9.62993 31.9291 10.9628 22.2991 12.9705V15.2556C29.8788 18.6572 35.2715 26.4476 35.6098 35.6043C26.4513 35.2734 18.6609 29.8733 15.2611 22.2936H12.9687C10.9628 31.9272 9.62808 33.2601 0 35.2678V37.7322C9.62808 39.7473 10.9628 41.0709 12.9687 50.7009H15.2851C18.6997 43.1526 26.4698 37.7932 35.6006 37.4604C35.2457 46.5912 29.8696 54.3521 22.2991 57.7444V60.0313C31.9291 62.0372 33.262 63.3719 35.2678 73H37.7322C39.7399 63.3719 41.0728 62.0372 50.7009 60.0313V57.7149C43.1711 54.3095 37.8191 46.5672 37.4641 37.4641C46.5653 37.8191 54.3077 43.1711 57.7149 50.7009H60.0295C62.0372 41.0709 63.3701 39.738 73 37.7322V35.2678C63.3701 33.2601 62.0372 31.9272 60.0295 22.2991ZM27.8009 14.2018C30.2264 13.4457 32.0215 12.5379 33.4228 11.1274C34.8241 9.71682 35.7448 7.92912 36.5009 5.50361C37.2552 7.92912 38.1648 9.72421 39.5772 11.1274C40.9896 12.5306 42.7736 13.4457 45.201 14.2018C42.7736 14.9579 40.9785 15.8767 39.5772 17.278C38.1759 18.6794 37.2552 20.4763 36.5009 22.9018C35.7448 20.4763 34.826 18.6812 33.4228 17.278C32.0196 15.8749 30.2264 14.9579 27.8009 14.2018ZM17.2762 39.5772C15.8749 40.9785 14.9579 42.7736 14.2018 45.1991C13.4457 42.7736 12.5269 40.9785 11.1255 39.5772C9.72421 38.1759 7.92727 37.2552 5.50176 36.4991C7.92727 35.7448 9.72236 34.826 11.1255 33.4228C12.5287 32.0196 13.4457 30.2264 14.2018 27.8009C14.9579 30.2264 15.8749 32.0215 17.2762 33.4228C18.6775 34.8241 20.4745 35.7448 22.9 36.4991C20.4745 37.2552 18.672 38.1722 17.2762 39.5772ZM45.201 58.8038C42.7736 59.5599 40.9785 60.4787 39.5772 61.88C38.1759 63.2813 37.2552 65.0783 36.5009 67.5038C35.7448 65.0783 34.826 63.2832 33.4228 61.88C32.0196 60.4768 30.2264 59.5599 27.8009 58.8038C30.2264 58.0476 32.0215 57.1307 33.4228 55.7294C34.8241 54.328 35.7448 52.5311 36.5009 50.1056C37.2552 52.5311 38.1648 54.3262 39.5772 55.7294C40.9896 57.1325 42.7736 58.0495 45.201 58.7982V58.8038ZM61.8726 39.5772C60.4713 40.9785 59.5543 42.7736 58.7982 45.1991C58.0421 42.7736 57.1233 40.9785 55.722 39.5772C54.3206 38.1759 52.5237 37.2552 50.0982 36.4991C52.5237 35.7448 54.3188 34.826 55.722 33.4228C57.1251 32.0196 58.0495 30.2264 58.7982 27.8009C59.5543 30.2264 60.4713 32.0215 61.8726 33.4228C63.2739 34.8241 65.0709 35.7448 67.4964 36.4991C65.0746 37.2552 63.2758 38.1722 61.8726 39.5772Z" fill="white"/>
</svg>
